<?xml version="1.0" standalone="no"?>
<!DOCTYPE svg PUBLIC "-//W3C//DTD SVG 20010904//EN"
 "http://www.w3.org/TR/2001/REC-SVG-20010904/DTD/svg10.dtd">
<svg version="1.0" xmlns="http://www.w3.org/2000/svg"
 width="500.000000pt" height="500.000000pt" viewBox="0 0 500.000000 500.000000"
 preserveAspectRatio="xMidYMid meet">
<metadata>
Created by potrace 1.11, written by Peter Selinger 2001-2013
</metadata>
<g transform="translate(0.000000,500.000000) scale(0.100000,-0.100000)"
fill="#000000" stroke="none">
<path d="M2001 4354 c-27 -35 -26 -66 2 -101 54 -66 69 -101 62 -145 -10 -56
-28 -82 -80 -113 -43 -25 -103 -33 -120 -16 -10 9 -98 44 -190 76 -83 28 -196
39 -283 27 -71 -10 -80 -14 -110 -48 -18 -21 -37 -56 -42 -78 -6 -23 -16 -52
-22 -66 -6 -14 -14 -54 -19 -90 -9 -75 -15 -106 -24 -120 -13 -21 -48 -146
-55 -200 -5 -30 -13 -73 -19 -95 -50 -198 -53 -230 -53 -535 1 -232 4 -309 16
-360 9 -36 16 -83 16 -105 0 -22 7 -72 16 -110 8 -39 19 -103 24 -143 11 -86
39 -192 51 -192 5 0 9 -9 9 -20 0 -10 5 -32 11 -47 19 -47 26 -66 49 -128 29
-80 81 -196 97 -216 7 -8 13 -22 13 -31 0 -8 9 -27 20 -41 11 -14 20 -34 20
-44 0 -11 9 -29 20 -41 11 -12 20 -30 20 -40 0 -11 7 -36 15 -56 9 -20 13 -41
10 -46 -7 -11 11 -45 42 -80 11 -14 31 -45 44 -69 19 -36 21 -48 12 -72 -7
-17 -7 -31 -2 -35 5 -3 9 -14 9 -25 0 -27 52 -69 111 -89 45 -15 97 -18 407
-19 196 0 385 4 421 10 36 5 97 14 136 19 38 6 93 19 122 30 29 12 78 31 109
43 31 12 59 27 61 34 3 7 10 13 17 13 19 1 60 44 79 83 13 29 17 64 17 146 0
148 4 163 61 218 56 55 119 135 119 153 0 6 16 28 35 48 20 20 38 48 42 62 3
14 11 32 18 40 20 23 53 124 60 185 4 30 13 59 20 65 8 6 17 30 20 53 4 23 12
51 18 62 6 11 16 43 23 70 7 28 17 64 22 80 39 116 52 164 52 193 0 18 9 60
20 93 20 59 21 79 18 543 -3 427 -6 487 -21 534 -11 31 -24 52 -33 52 -9 0
-14 9 -12 28 2 33 -36 146 -63 183 -10 15 -19 33 -19 41 0 8 -9 24 -20 36 -11
12 -20 25 -20 29 0 8 -179 183 -187 183 -3 0 -13 10 -22 22 -10 11 -27 22 -37
23 -11 0 -31 8 -44 18 -62 43 -220 70 -439 74 l-184 4 -58 -41 c-31 -22 -60
-40 -64 -40 -4 0 -5 11 -3 25 4 19 1 25 -11 25 -10 0 -41 12 -70 26 -29 15
-66 27 -82 29 -16 1 -40 12 -52 24 -35 32 -99 29 -126 -5z m224 -3172 c6 -4
18 -38 28 -77 9 -38 26 -81 36 -95 26 -36 44 -97 37 -126 -9 -34 -26 -20 -26
20 0 35 -21 62 -40 51 -5 -3 -26 11 -45 32 -19 20 -36 35 -38 33 -2 -3 -11
-16 -21 -30 -11 -16 -26 -25 -44 -25 -23 0 -27 -5 -30 -32 -3 -35 -21 -46 -24
-15 -2 30 3 76 11 102 5 14 15 45 22 70 15 55 26 70 49 70 10 0 23 7 30 15 13
16 39 19 55 7z"/>
</g>
</svg>
